<svg width="36" height="5" viewBox="0 0 36 5" fill="none" xmlns="http://www.w3.org/2000/svg">
<path d="M35.916 2.72109C35.0826 2.73211 34.6713 2.89279 34.6822 3.20311L33.0241 3.47388L32.6034 3.3653L32.6075 3.48167C26.7094 3.13157 19.8963 3.03067 12.1683 3.17898L9.66851 3.22574L9.25621 3.35675L8.83957 3.36454L8.41885 3.25596L8.42294 3.37233L8.00221 3.26375L5.08986 3.43468L4.25659 3.45026C2.44578 3.09812 1.05018 2.93014 0.0697867 2.94633L0.0534223 2.48084L0.866477 1.89023L3.78701 1.95205L5.43694 1.44855L11.6903 1.44118L19.1895 1.29406L20.4476 1.50343L22.1141 1.47226L22.5267 1.34809L22.9433 1.3403L22.9515 1.57304L23.3681 1.56525L23.7807 1.44108L31.7088 1.63529L31.7047 1.51892L32.1254 1.6275L34.625 1.5739L35.0375 1.44973L35.4541 1.44194L35.916 2.72109ZM28.3757 1.69764L25.4595 1.75903L25.4636 1.8754L28.3798 1.81401L28.3757 1.69764ZM24.2055 1.66604L21.7057 1.71279L21.7098 1.82917L24.2096 1.78241L24.2055 1.66604ZM20.4517 1.6198L17.9521 1.6734L17.9562 1.78978L20.4558 1.73617L20.4517 1.6198ZM3.79519 2.1848L1.71202 2.22376L2.55323 2.43408L3.80338 2.41755L3.79519 2.1848Z" fill="#363636"/>
</svg>
