<svg width="480" height="480" viewBox="0 0 480 480" fill="none" xmlns="http://www.w3.org/2000/svg">
<path fill-rule="evenodd" clip-rule="evenodd" d="M240 480C372.548 480 480 372.548 480 240C480 107.452 372.548 0 240 0C107.452 0 0 107.452 0 240C0 372.548 107.452 480 240 480ZM342.379 289.206C339.422 295.302 331.303 299.775 324.387 299.775L106.283 299.822C97.305 299.822 90 292.518 90 283.541L90.2821 143.756L90.141 102.466C90.13 100.488 90.9057 98.5921 92.2977 97.1891C93.6933 95.7867 95.5905 95 97.5638 95H155.258C158.339 95 161.097 96.9028 162.195 99.7787L172.747 127.475H314.963C323.941 127.475 331.244 134.778 331.244 143.756V169.768H389.338C398.344 169.768 403.35 173.716 399.907 180.339L342.379 289.206ZM189.727 169.772H316.398L316.399 143.76C316.399 142.969 315.754 142.324 314.964 142.324H167.632C164.551 142.324 161.794 140.42 160.696 137.544L150.144 109.849H104.838L104.846 143.716V283.541C104.846 284.331 105.492 284.976 106.283 284.976H123.722L175.445 180.343C178.366 174.491 183.888 169.772 189.727 169.772ZM124.542 352.352C122.952 352.352 121.645 351.893 120.62 350.974C119.631 350.02 119.136 348.854 119.136 347.476C119.136 346.063 119.631 344.897 120.62 343.978C121.645 343.024 122.952 342.547 124.542 342.547C126.097 342.547 127.369 343.024 128.358 343.978C129.383 344.897 129.895 346.063 129.895 347.476C129.895 348.854 129.383 350.02 128.358 350.974C127.369 351.893 126.097 352.352 124.542 352.352ZM129.047 355.426V385H119.984V355.426H129.047ZM219.167 350.974C220.192 351.893 221.499 352.352 223.089 352.352C224.644 352.352 225.916 351.893 226.905 350.974C227.93 350.02 228.442 348.854 228.442 347.476C228.442 346.063 227.93 344.897 226.905 343.978C225.916 343.024 224.644 342.547 223.089 342.547C221.499 342.547 220.192 343.024 219.167 343.978C218.178 344.897 217.683 346.063 217.683 347.476C217.683 348.854 218.178 350.02 219.167 350.974ZM227.594 385V355.426H218.531V385H227.594ZM299.149 385V347.794H290.086V362.369H275.988V347.794H266.925V385H275.988V369.683H290.086V385H299.149ZM333.569 369.736C333.569 370.584 333.516 371.467 333.41 372.386H312.899C313.041 374.223 313.624 375.637 314.648 376.626C315.708 377.58 316.998 378.057 318.517 378.057C320.779 378.057 322.351 377.103 323.234 375.195H332.88C332.386 377.138 331.485 378.887 330.177 380.442C328.905 381.997 327.298 383.216 325.354 384.099C323.411 384.982 321.238 385.424 318.835 385.424C315.938 385.424 313.359 384.806 311.097 383.569C308.836 382.332 307.069 380.566 305.797 378.269C304.525 375.972 303.889 373.287 303.889 370.213C303.889 367.139 304.508 364.454 305.744 362.157C307.016 359.86 308.783 358.094 311.044 356.857C313.306 355.62 315.903 355.002 318.835 355.002C321.697 355.002 324.241 355.603 326.467 356.804C328.693 358.005 330.425 359.719 331.661 361.945C332.933 364.171 333.569 366.768 333.569 369.736ZM324.294 367.351C324.294 365.796 323.764 364.56 322.704 363.641C321.644 362.722 320.319 362.263 318.729 362.263C317.21 362.263 315.92 362.705 314.86 363.588C313.836 364.471 313.2 365.726 312.952 367.351H324.294ZM388.74 372.386C388.845 371.467 388.898 370.584 388.898 369.736C388.898 366.768 388.263 364.171 386.991 361.945C385.754 359.719 384.023 358.005 381.797 356.804C379.57 355.603 377.026 355.002 374.164 355.002C371.232 355.002 368.635 355.62 366.374 356.857C364.112 358.094 362.345 359.86 361.073 362.157C359.837 364.454 359.219 367.139 359.219 370.213C359.219 373.287 359.854 375.972 361.126 378.269C362.398 380.566 364.165 382.332 366.426 383.569C368.688 384.806 371.267 385.424 374.164 385.424C376.567 385.424 378.74 384.982 380.684 384.099C382.627 383.216 384.234 381.997 385.507 380.442C386.814 378.887 387.715 377.138 388.21 375.195H378.564C377.68 377.103 376.108 378.057 373.846 378.057C372.327 378.057 371.038 377.58 369.978 376.626C368.953 375.637 368.37 374.223 368.228 372.386H388.74ZM378.034 363.641C379.094 364.56 379.624 365.796 379.624 367.351H368.281C368.529 365.726 369.165 364.471 370.189 363.588C371.249 362.705 372.539 362.263 374.059 362.263C375.648 362.263 376.974 362.722 378.034 363.641ZM351.389 356.539C349.799 357.458 348.474 358.73 347.414 360.355V355.426H338.351V385H347.414V371.273C347.414 368.835 347.979 367.139 349.11 366.185C350.24 365.196 351.936 364.701 354.198 364.701H356.689V355.108C354.745 355.108 352.979 355.585 351.389 356.539ZM250.645 377.315V385H246.034C242.748 385 240.186 384.205 238.349 382.615C236.512 380.99 235.593 378.357 235.593 374.718V362.952H231.989V355.426H235.593V348.218H244.656V355.426H250.592V362.952H244.656V374.824C244.656 375.707 244.868 376.343 245.292 376.732C245.716 377.121 246.423 377.315 247.412 377.315H250.645ZM169.526 370.16C169.526 367.121 170.091 364.454 171.222 362.157C172.388 359.86 173.96 358.094 175.939 356.857C177.918 355.62 180.126 355.002 182.564 355.002C184.507 355.002 186.274 355.408 187.864 356.221C189.489 357.034 190.761 358.129 191.68 359.507V345.78H200.743V385H191.68V380.76C190.832 382.173 189.613 383.304 188.023 384.152C186.468 385 184.649 385.424 182.564 385.424C180.126 385.424 177.918 384.806 175.939 383.569C173.96 382.297 172.388 380.513 171.222 378.216C170.091 375.884 169.526 373.199 169.526 370.16ZM191.68 370.213C191.68 367.952 191.044 366.167 189.772 364.86C188.535 363.553 187.016 362.899 185.214 362.899C183.412 362.899 181.875 363.553 180.603 364.86C179.366 366.132 178.748 367.899 178.748 370.16C178.748 372.421 179.366 374.223 180.603 375.566C181.875 376.873 183.412 377.527 185.214 377.527C187.016 377.527 188.535 376.873 189.772 375.566C191.044 374.259 191.68 372.474 191.68 370.213ZM161.903 358.5C159.854 356.239 157.098 355.108 153.635 355.108C151.692 355.108 149.943 355.497 148.388 356.274C146.834 357.016 145.597 358.041 144.678 359.348V355.426H135.615V385H144.678V368.941C144.678 366.962 145.191 365.425 146.215 364.33C147.24 363.235 148.618 362.687 150.349 362.687C152.081 362.687 153.459 363.235 154.483 364.33C155.508 365.425 156.02 366.962 156.02 368.941V385H165.03V367.722C165.03 363.8 163.988 360.726 161.903 358.5ZM115.221 355.055V347.794H91V385H100.063V369.948H111.405V362.899H100.063V355.055H115.221Z" fill="#A6CBCB"/>
</svg>
